<svg id="Capa_1" enable-background="new 0 0 512 512" height="512" viewBox="0 0 512 512" width="512" xmlns="http://www.w3.org/2000/svg"><g><path d="m373.437 363.666c-20.279-4.995-37.771-9.829-49.937-17.666l-67.5 72.041-67.5-72.041c-12.166 7.837-29.658 12.671-49.937 17.666-67.283 16.555-107.563 41.272-107.563 133.334 0 8.291 6.709 15 15 15h45 165 165 45c8.291 0 15-6.709 15-15 0-89.291-38.042-116.228-107.563-133.334z" fill="#c86e59"/><path d="m466 512c8.291 0 15-6.709 15-15 0-89.291-38.042-116.228-107.563-133.334-20.279-4.995-37.771-9.829-49.937-17.666l-67.5 72.041v93.959h165z" fill="#a34f3e"/><path d="m301 307.665h-45-45c-3.186 18.847-10.677 30.406-22.5 38.335l67.5 41.968 67.5-41.968c-11.823-7.928-19.314-19.488-22.5-38.335z" fill="#ffccb3"/><path d="m301 307.665h-45v80.303l67.5-41.968c-11.823-7.928-19.314-19.488-22.5-38.335z" fill="#fb9"/><path d="m365.644 405.019-42.144-59.019-67.5 41.968-67.5-41.968-42.144 59.019c-2.212 3.311-3.003 7.368-2.227 11.265s3.076 7.324 6.387 9.536l63.882 42.583c7.018 4.653 16.28 2.631 20.801-4.16l20.801-31.202 20.801 31.201c4.521 6.793 13.786 8.809 20.801 4.16l63.882-42.583c3.311-2.212 5.61-5.64 6.387-9.536s-.016-7.954-2.227-11.264z" fill="#474f54"/><path d="m297.602 468.402 63.882-42.583c3.311-2.212 5.61-5.64 6.387-9.536s-.015-7.954-2.227-11.265l-42.144-59.018-67.5 41.968v45.073l20.801 31.201c4.522 6.794 13.785 8.811 20.801 4.16z" fill="#32393f"/><path d="m331 150h-75-75l-30 30v46c0 57.99 47.01 105 105 105s105-47.01 105-105v-46z" fill="#fdc"/><path d="m361 226v-46l-30-30h-75v181c57.99 0 105-47.01 105-105z" fill="#ffccb3"/><g><path d="m298.642 49.731c-7.412-3.706-10.415-12.715-6.709-20.127l10.649-21.313c3.691-7.427 12.729-10.371 20.127-6.709 7.412 3.706 10.415 12.715 6.709 20.127l-10.649 21.313c-3.649 7.319-12.612 10.442-20.127 6.709z" fill="#32393f"/></g><path d="m256 90h-105v90h105 105v-90z" fill="#474f54"/><path d="m256 90h105v90h-105z" fill="#32393f"/><path d="m402.455 79.995v-.015c-29.562-32.521-91.194-62.547-146.455-74.428-15.851-3.408-31.273-5.552-45.146-5.552h-14.854c-48.558 0-74.268 29.152-74.268 64.204 0 30.762 19.864 55.796 44.268 55.796 37.004 0 66.292 3.386 90 8.459 77.133 16.506 93.012 51.541 105 51.541 68.335 0 74.691-63.437 41.455-100.005z" fill="#575f64"/><path d="m402.455 79.995v-.015c-29.562-32.521-91.194-62.547-146.455-74.428v122.908c77.133 16.505 93.012 51.54 105 51.54 68.335 0 74.691-63.437 41.455-100.005z" fill="#474f54"/></g></svg>